<?xml version="1.0"?>
<svg xmlns="http://www.w3.org/2000/svg" xmlns:xlink="http://www.w3.org/1999/xlink" xmlns:svgjs="http://svgjs.com/svgjs" version="1.1" width="512" height="512" x="0" y="0" viewBox="0 0 512 512" style="enable-background:new 0 0 512 512" xml:space="preserve" class=""><g><path xmlns="http://www.w3.org/2000/svg" d="m416 312h16v16h-16z" fill="#56718f" data-original="#000000" style="" class=""/><path xmlns="http://www.w3.org/2000/svg" d="m416 392h16v16h-16z" fill="#56718f" data-original="#000000" style="" class=""/><path xmlns="http://www.w3.org/2000/svg" d="m279.9 290.977-4.9 30.051 25.136-13.9a8 8 0 0 1 7.74 0l25.136 13.9-4.9-30.051a8 8 0 0 1 2.17-6.875l21.118-21.654-28.833-4.4a8 8 0 0 1 -6.033-4.509l-12.534-26.711-12.535 26.706a8 8 0 0 1 -6.033 4.509l-28.833 4.4 21.127 21.657a8 8 0 0 1 2.174 6.877z" fill="#56718f" data-original="#000000" style="" class=""/><path xmlns="http://www.w3.org/2000/svg" d="m336 392h16v16h-16z" fill="#56718f" data-original="#000000" style="" class=""/><path xmlns="http://www.w3.org/2000/svg" d="m176 392h16v16h-16z" fill="#56718f" data-original="#000000" style="" class=""/><path xmlns="http://www.w3.org/2000/svg" d="m176 232h16v16h-16z" fill="#56718f" data-original="#000000" style="" class=""/><path xmlns="http://www.w3.org/2000/svg" d="m176 312h16v16h-16z" fill="#56718f" data-original="#000000" style="" class=""/><path xmlns="http://www.w3.org/2000/svg" d="m392 88v-48a8 8 0 0 0 -16 0v48a8 8 0 0 0 16 0z" fill="#56718f" data-original="#000000" style="" class=""/><path xmlns="http://www.w3.org/2000/svg" d="m256 392h16v16h-16z" fill="#56718f" data-original="#000000" style="" class=""/><path xmlns="http://www.w3.org/2000/svg" d="m136 88v-48a8 8 0 0 0 -16 0v48a8 8 0 0 0 16 0z" fill="#56718f" data-original="#000000" style="" class=""/><path xmlns="http://www.w3.org/2000/svg" d="m264 88v-48a8 8 0 0 0 -16 0v48a8 8 0 0 0 16 0z" fill="#56718f" data-original="#000000" style="" class=""/><path xmlns="http://www.w3.org/2000/svg" d="m416 232h16v16h-16z" fill="#56718f" data-original="#000000" style="" class=""/><path xmlns="http://www.w3.org/2000/svg" d="m96 312h16v16h-16z" fill="#56718f" data-original="#000000" style="" class=""/><path xmlns="http://www.w3.org/2000/svg" d="m32 456a24.028 24.028 0 0 0 24 24h400a24.028 24.028 0 0 0 24-24v-296h-448zm256-40a8 8 0 0 1 -8 8h-32a8 8 0 0 1 -8-8v-32a8 8 0 0 1 8-8h32a8 8 0 0 1 8 8zm80 0a8 8 0 0 1 -8 8h-32a8 8 0 0 1 -8-8v-32a8 8 0 0 1 8-8h32a8 8 0 0 1 8 8zm32-192a8 8 0 0 1 8-8h32a8 8 0 0 1 8 8v32a8 8 0 0 1 -8 8h-32a8 8 0 0 1 -8-8zm0 80a8 8 0 0 1 8-8h32a8 8 0 0 1 8 8v32a8 8 0 0 1 -8 8h-32a8 8 0 0 1 -8-8zm0 80a8 8 0 0 1 8-8h32a8 8 0 0 1 8 8v32a8 8 0 0 1 -8 8h-32a8 8 0 0 1 -8-8zm-167.586-129.648a8 8 0 0 1 6.378-5.369l40-6.112 17.963-38.27a8 8 0 0 1 14.484 0l17.963 38.27 40 6.112a8 8 0 0 1 4.518 13.5l-29.181 29.907 6.9 42.326a8 8 0 0 1 -11.755 8.284l-35.684-19.724-35.684 19.724a8 8 0 0 1 -11.766-8.289l6.9-42.326-29.181-29.907a8 8 0 0 1 -1.855-8.126zm-72.414-30.352a8 8 0 0 1 8-8h32a8 8 0 0 1 8 8v32a8 8 0 0 1 -8 8h-32a8 8 0 0 1 -8-8zm0 80a8 8 0 0 1 8-8h32a8 8 0 0 1 8 8v32a8 8 0 0 1 -8 8h-32a8 8 0 0 1 -8-8zm0 80a8 8 0 0 1 8-8h32a8 8 0 0 1 8 8v32a8 8 0 0 1 -8 8h-32a8 8 0 0 1 -8-8zm-80-80a8 8 0 0 1 8-8h32a8 8 0 0 1 8 8v32a8 8 0 0 1 -8 8h-32a8 8 0 0 1 -8-8zm0 80a8 8 0 0 1 8-8h32a8 8 0 0 1 8 8v32a8 8 0 0 1 -8 8h-32a8 8 0 0 1 -8-8z" fill="#56718f" data-original="#000000" style="" class=""/><path xmlns="http://www.w3.org/2000/svg" d="m96 392h16v16h-16z" fill="#56718f" data-original="#000000" style="" class=""/><path xmlns="http://www.w3.org/2000/svg" d="m456 64h-48v24a24 24 0 0 1 -48 0v-24h-80v24a24 24 0 0 1 -48 0v-24h-80v24a24 24 0 0 1 -48 0v-24h-48a24.028 24.028 0 0 0 -24 24v56h448v-56a24.028 24.028 0 0 0 -24-24z" fill="#56718f" data-original="#000000" style="" class=""/></g></svg>
